<svg width="164" height="164" viewBox="0 0 164 164" fill="none" xmlns="http://www.w3.org/2000/svg">
<path d="M73.3454 4.83728L93.3423 5.18633L92.173 72.1761L91.824 92.1731L90.6547 159.163L70.6577 158.814L71.827 91.824L72.1499 73.3268L73.3454 4.83728Z" fill="#304B60"/>
<path d="M72.1499 73.3268L5.16883 71.6576L4.83723 90.6547L71.827 91.824L72.1499 73.3268Z" fill="#304B60"/>
<path d="M91.824 92.1731L158.814 93.3424L159.163 73.3454L92.173 72.1761L91.824 92.1731Z" fill="#304B60"/>
<path fill-rule="evenodd" clip-rule="evenodd" d="M69.4158 0.767944L97.4115 1.25661L94.5842 163.232L66.5885 162.743L69.4158 0.767944ZM71.3806 2.80254L95.3769 3.2214L95.1326 17.2193L71.1362 16.8004L71.3806 2.80254ZM95.0977 19.219L71.1013 18.8001L70.857 32.798L94.8533 33.2168L95.0977 19.219ZM70.8221 34.7977L94.8184 35.2165L94.5741 49.2144L70.5777 48.7955L70.8221 34.7977ZM94.5392 51.2141L70.5428 50.7952L70.2985 64.7931L94.2948 65.212L94.5392 51.2141ZM70.2636 66.7928L94.2599 67.2117L94.0156 81.2095L70.0193 80.7907L70.2636 66.7928ZM93.9807 83.2092L69.9844 82.7904L69.74 96.7882L93.7364 97.2071L93.9807 83.2092ZM69.7051 98.7879L93.7015 99.2068L93.4571 113.205L69.4608 112.786L69.7051 98.7879ZM93.4222 115.204L69.4259 114.785L69.1815 128.783L93.1779 129.202L93.4222 115.204ZM69.1466 130.783L93.143 131.202L92.8987 145.2L68.9023 144.781L69.1466 130.783ZM92.8638 147.199L68.8674 146.781L68.6231 160.778L92.6194 161.197L92.8638 147.199Z" fill="#14222D"/>
<path fill-rule="evenodd" clip-rule="evenodd" d="M163.232 69.4157L162.743 97.4115L0.767986 94.5842L1.25665 66.5884L163.232 69.4157ZM161.197 71.3805L160.779 95.3769L146.781 95.1325L147.2 71.1362L161.197 71.3805ZM144.781 95.0976L145.2 71.1013L131.202 70.8569L130.783 94.8533L144.781 95.0976ZM129.202 70.822L128.783 94.8184L114.786 94.574L115.204 70.5777L129.202 70.822ZM112.786 94.5391L113.205 70.5428L99.2068 70.2985L98.788 94.2948L112.786 94.5391ZM97.2071 70.2636L96.7883 94.2599L82.7904 94.0156L83.2093 70.0192L97.2071 70.2636ZM80.7907 93.9807L81.2096 69.9843L67.2117 69.74L66.7928 93.7363L80.7907 93.9807ZM65.212 69.7051L64.7931 93.7014L50.7953 93.4571L51.2141 69.4607L65.212 69.7051ZM48.7956 93.4222L49.2144 69.4258L35.2166 69.1815L34.7977 93.1778L48.7956 93.4222ZM33.2169 69.1466L32.798 93.1429L18.8001 92.8986L19.219 68.9023L33.2169 69.1466ZM16.8005 92.8637L17.2193 68.8674L3.22145 68.623L2.80259 92.6194L16.8005 92.8637Z" fill="#14222D"/>
</svg>
