<svg width="274" height="176" viewBox="0 0 274 176" fill="none" xmlns="http://www.w3.org/2000/svg">
<path d="M0 63.6145L14.0874 56.8712L20.6728 53.7189L23.9486 52.1509L33.1054 47.7677L72.3549 28.9799L76.7848 26.8594L81.7069 24.5033L92.2725 19.4459L122.56 4.94779L151.44 18.5616L159.892 22.5461L171.162 27.8589L181.037 32.5141L229.625 55.4185L246.162 63.2143L274 76.3373L116.221 176L0 63.6145Z" fill="#649ECC"/>
<path d="M16.9049 41.7028L14.0874 56.8712L20.6728 53.7189L16.9049 41.7028Z" fill="#649ECC"/>
<path d="M28.1748 30.3936L23.9486 52.1509L33.1054 47.7677L28.1748 30.3936Z" fill="#649ECC"/>
<path d="M74.6632 18.3775L72.3549 28.9799L76.7848 26.8594L74.6632 18.3775Z" fill="#649ECC"/>
<path d="M87.3419 0L81.7069 24.5033L92.2725 19.4459L87.3419 0Z" fill="#649ECC"/>
<path d="M154.961 7.06827L151.44 18.5616L159.892 22.5461L154.961 7.06827Z" fill="#649ECC"/>
<path d="M176.093 9.89558L171.162 27.8589L181.037 32.5141L176.093 9.89558Z" fill="#649ECC"/>
<path d="M229.625 55.4185L246.162 63.2143L235.964 32.5141L229.625 55.4185Z" fill="#649ECC"/>
</svg>
