<svg width="352" height="162" viewBox="0 0 352 162" fill="none" xmlns="http://www.w3.org/2000/svg">
<path fill-rule="evenodd" clip-rule="evenodd" d="M188.556 0.290039L182.245 25.5324H182.321L129.788 48.5061L125.45 28.0566L119.177 53.1462L113.495 55.6312L110.304 44.4642L106.631 58.6329L73.8348 72.9752L67.3923 52.0369L60.8554 78.6514L55.4136 81.0312L50.3537 65.2891L46.2913 85.0205L40.5859 87.5156L34.5772 64.027L27.9256 93.0522L0.5 105.046V161.21H352V69.7066L279.302 37.7736L276.904 30.5809L275.521 36.113L272.071 34.5975L269.331 23.6392L266.32 32.0713L216.953 10.387L204.637 15.7732L201.177 5.96957L198.022 18.5908V18.6662L194.746 20.0987L188.556 0.290039ZM143.119 23.0082L138.702 44.4642L146.906 40.6778L143.119 23.0082Z" fill="#518BB1"/>
</svg>
