<svg width="100%" height="100%" viewBox="0 0 800 450" fill="none" xmlns="http://www.w3.org/2000/svg">
<path fill-rule="evenodd" clip-rule="evenodd" d="M98.2517 141.758L66 0L44.9782 92.3983C16.6045 64.3719 0 45 0 45V450H800.5V249.5C800.5 249.5 798.776 248.833 795.723 247.679L773 153L753.892 232.616C747.44 230.411 740.717 228.174 734 226.033V216.62C743.685 214.752 751 206.23 751 196C751 184.402 730 137 730 137C730 137 709 184.402 709 196C709 206.23 716.315 214.752 726 216.62V223.529C720.714 221.907 715.501 220.376 710.5 219C671.838 208.358 602.5 195 602.5 195C602.5 195 587.62 219.423 560.638 244.28L547 187L527.245 269.972C511.602 279.779 493.773 287.986 474 292.5C363.04 317.833 242.838 253.959 151.244 184.772L129 87L113.573 154.806C108.325 150.422 103.215 146.065 98.2517 141.758Z" fill="#15232E"/>
</svg>
